<mxfile host="app.diagrams.net" modified="2021-12-27T08:39:04.871Z" agent="5.0 (Windows NT 10.0; Win64; x64) AppleWebKit/537.36 (KHTML, like Gecko) Chrome/96.0.4664.110 Safari/537.36" etag="d1akZI8vV6rnQHGS43_q" version="15.9.4" type="github">
  <diagram id="aWKMjApjRU-5qSnoqUdv" name="Page-1">
    <mxGraphModel dx="1422" dy="839" grid="1" gridSize="10" guides="1" tooltips="1" connect="1" arrows="1" fold="1" page="1" pageScale="1" pageWidth="827" pageHeight="1169" math="0" shadow="0">
      <root>
        <mxCell id="0" />
        <mxCell id="1" parent="0" />
        <mxCell id="OV7thjwKl71wcXRSWoRR-8" value="数据转发程序" style="shape=umlLifeline;perimeter=lifelinePerimeter;whiteSpace=wrap;html=1;container=1;collapsible=0;recursiveResize=0;outlineConnect=0;" vertex="1" parent="1">
          <mxGeometry x="290" y="190" width="100" height="300" as="geometry" />
        </mxCell>
        <mxCell id="OV7thjwKl71wcXRSWoRR-15" value="" style="html=1;points=[];perimeter=orthogonalPerimeter;" vertex="1" parent="OV7thjwKl71wcXRSWoRR-8">
          <mxGeometry x="45" y="100" width="10" height="50" as="geometry" />
        </mxCell>
        <mxCell id="OV7thjwKl71wcXRSWoRR-9" value="新能源监控平台数据转发" style="shape=umlLifeline;perimeter=lifelinePerimeter;whiteSpace=wrap;html=1;container=1;collapsible=0;recursiveResize=0;outlineConnect=0;" vertex="1" parent="1">
          <mxGeometry x="70" y="190" width="100" height="300" as="geometry" />
        </mxCell>
        <mxCell id="OV7thjwKl71wcXRSWoRR-13" value="" style="html=1;points=[];perimeter=orthogonalPerimeter;" vertex="1" parent="OV7thjwKl71wcXRSWoRR-9">
          <mxGeometry x="45" y="70" width="10" height="80" as="geometry" />
        </mxCell>
        <mxCell id="OV7thjwKl71wcXRSWoRR-10" value="Kafka&amp;nbsp;" style="shape=umlLifeline;perimeter=lifelinePerimeter;whiteSpace=wrap;html=1;container=1;collapsible=0;recursiveResize=0;outlineConnect=0;" vertex="1" parent="1">
          <mxGeometry x="510" y="190" width="100" height="300" as="geometry" />
        </mxCell>
        <object label="1、转发数据" id="OV7thjwKl71wcXRSWoRR-16">
          <mxCell style="html=1;verticalAlign=bottom;endArrow=block;rounded=0;exitX=1;exitY=0.363;exitDx=0;exitDy=0;exitPerimeter=0;" edge="1" parent="1" source="OV7thjwKl71wcXRSWoRR-13" target="OV7thjwKl71wcXRSWoRR-8">
            <mxGeometry width="80" relative="1" as="geometry">
              <mxPoint x="500" y="520" as="sourcePoint" />
              <mxPoint x="580" y="520" as="targetPoint" />
            </mxGeometry>
          </mxCell>
        </object>
        <mxCell id="OV7thjwKl71wcXRSWoRR-17" value="2、推送数据到Kafka&amp;nbsp;" style="html=1;verticalAlign=bottom;endArrow=block;rounded=0;exitX=0.6;exitY=1;exitDx=0;exitDy=0;exitPerimeter=0;" edge="1" parent="1" source="OV7thjwKl71wcXRSWoRR-15" target="OV7thjwKl71wcXRSWoRR-10">
          <mxGeometry width="80" relative="1" as="geometry">
            <mxPoint x="500" y="520" as="sourcePoint" />
            <mxPoint x="580" y="520" as="targetPoint" />
          </mxGeometry>
        </mxCell>
        <mxCell id="OV7thjwKl71wcXRSWoRR-19" value="3、返回确认信息" style="html=1;verticalAlign=bottom;endArrow=open;dashed=1;endSize=8;rounded=0;entryX=0.7;entryY=1;entryDx=0;entryDy=0;entryPerimeter=0;" edge="1" parent="1" target="OV7thjwKl71wcXRSWoRR-13">
          <mxGeometry x="0.0092" y="-10" relative="1" as="geometry">
            <mxPoint x="340" y="340" as="sourcePoint" />
            <mxPoint x="500" y="520" as="targetPoint" />
            <mxPoint as="offset" />
          </mxGeometry>
        </mxCell>
      </root>
    </mxGraphModel>
  </diagram>
</mxfile>
